<?xml version="1.0" standalone="no"?><!DOCTYPE svg PUBLIC "-//W3C//DTD SVG 1.1//EN" "http://www.w3.org/Graphics/SVG/1.1/DTD/svg11.dtd"><svg t="1706563272438" class="icon" viewBox="0 0 1319 1024" version="1.1" xmlns="http://www.w3.org/2000/svg" p-id="3800" xmlns:xlink="http://www.w3.org/1999/xlink" width="257.6171875" height="200"><path d="M1067.841475 170.588018H77.729032A78.156682 78.156682 0 0 0 0 248.169585v698.248848a78.156682 78.156682 0 0 0 77.729032 77.581567h990.08295a77.817512 77.817512 0 0 0 77.56682-77.581567v-698.248848a77.817512 77.817512 0 0 0-77.537327-77.581567zM911.159447 365.478341a58.189862 58.189862 0 1 1 0 116.379724 58.189862 58.189862 0 0 1 0-116.379724z m40.700461 502.635945h-768.294931c-36.866359 0-57.039631-42.764977-33.651613-71.2553l212.025807-257.740092a43.576037 43.576037 0 0 1 61.345622-5.987097 44.018433 44.018433 0 0 1 5.987096 5.987097l188.755761 229.559447a43.56129 43.56129 0 0 0 67.317972 0l104.847926-127.483871a43.590783 43.590783 0 0 1 67.317973 0l128.014746 155.679263c23.373272 28.41659 3.170507 71.240553-33.666359 71.240553z" p-id="3801"></path><path d="M1135.247926 0H224.191705A137.880184 137.880184 0 0 0 93.493088 93.979724h1012.070046a117.352995 117.352995 0 0 1 117.352995 117.352995v675.185253a137.880184 137.880184 0 0 0 96.988018-131.657143V184.670968A184.670968 184.670968 0 0 0 1135.247926 0z" p-id="3802"></path></svg>